<mxfile host="app.diagrams.net" modified="2022-09-20T17:00:02.165Z" agent="5.0 (Windows NT 10.0; Win64; x64) AppleWebKit/537.36 (KHTML, like Gecko) Chrome/105.0.0.0 Safari/537.36" etag="RY8oZbh0L3fBaJQhm_7R" version="20.2.3" type="github">
  <diagram id="SpdsLTlt3C1zTrYzNMNh" name="Página-1">
    <mxGraphModel dx="1422" dy="794" grid="1" gridSize="10" guides="1" tooltips="1" connect="1" arrows="0" fold="1" page="1" pageScale="1" pageWidth="827" pageHeight="1169" math="0" shadow="0">
      <root>
        <mxCell id="0" />
        <mxCell id="1" parent="0" />
        <mxCell id="-u5mKM38-H2IbTdaF1BU-21" style="edgeStyle=orthogonalEdgeStyle;rounded=0;orthogonalLoop=1;jettySize=auto;html=1;exitX=0.5;exitY=1;exitDx=0;exitDy=0;" edge="1" parent="1" source="-u5mKM38-H2IbTdaF1BU-1" target="-u5mKM38-H2IbTdaF1BU-4">
          <mxGeometry relative="1" as="geometry" />
        </mxCell>
        <mxCell id="-u5mKM38-H2IbTdaF1BU-1" value="clientes" style="whiteSpace=wrap;html=1;align=center;" vertex="1" parent="1">
          <mxGeometry x="120" y="240" width="100" height="40" as="geometry" />
        </mxCell>
        <mxCell id="-u5mKM38-H2IbTdaF1BU-26" style="edgeStyle=orthogonalEdgeStyle;rounded=0;orthogonalLoop=1;jettySize=auto;html=1;exitX=0.5;exitY=1;exitDx=0;exitDy=0;entryX=0.417;entryY=0;entryDx=0;entryDy=0;entryPerimeter=0;" edge="1" parent="1" source="-u5mKM38-H2IbTdaF1BU-2" target="-u5mKM38-H2IbTdaF1BU-5">
          <mxGeometry relative="1" as="geometry">
            <Array as="points">
              <mxPoint x="620" y="280" />
              <mxPoint x="620" y="370" />
            </Array>
          </mxGeometry>
        </mxCell>
        <mxCell id="-u5mKM38-H2IbTdaF1BU-2" value="proveedores" style="whiteSpace=wrap;html=1;align=center;" vertex="1" parent="1">
          <mxGeometry x="560" y="240" width="100" height="40" as="geometry" />
        </mxCell>
        <mxCell id="-u5mKM38-H2IbTdaF1BU-30" value="" style="edgeStyle=orthogonalEdgeStyle;rounded=0;orthogonalLoop=1;jettySize=auto;html=1;" edge="1" parent="1" source="-u5mKM38-H2IbTdaF1BU-3" target="-u5mKM38-H2IbTdaF1BU-16">
          <mxGeometry relative="1" as="geometry" />
        </mxCell>
        <mxCell id="-u5mKM38-H2IbTdaF1BU-45" style="edgeStyle=orthogonalEdgeStyle;rounded=0;orthogonalLoop=1;jettySize=auto;html=1;exitX=0;exitY=0.5;exitDx=0;exitDy=0;entryX=1;entryY=0.5;entryDx=0;entryDy=0;" edge="1" parent="1" source="-u5mKM38-H2IbTdaF1BU-3" target="-u5mKM38-H2IbTdaF1BU-4">
          <mxGeometry relative="1" as="geometry" />
        </mxCell>
        <mxCell id="-u5mKM38-H2IbTdaF1BU-3" value="productos" style="whiteSpace=wrap;html=1;align=center;" vertex="1" parent="1">
          <mxGeometry x="360" y="440" width="100" height="40" as="geometry" />
        </mxCell>
        <mxCell id="-u5mKM38-H2IbTdaF1BU-4" value="compra" style="shape=rhombus;perimeter=rhombusPerimeter;whiteSpace=wrap;html=1;align=center;fillColor=#f8cecc;strokeColor=#b85450;" vertex="1" parent="1">
          <mxGeometry x="110" y="370" width="120" height="60" as="geometry" />
        </mxCell>
        <mxCell id="-u5mKM38-H2IbTdaF1BU-27" style="edgeStyle=orthogonalEdgeStyle;rounded=0;orthogonalLoop=1;jettySize=auto;html=1;exitX=0.5;exitY=1;exitDx=0;exitDy=0;entryX=1;entryY=0.5;entryDx=0;entryDy=0;" edge="1" parent="1" source="-u5mKM38-H2IbTdaF1BU-5" target="-u5mKM38-H2IbTdaF1BU-3">
          <mxGeometry relative="1" as="geometry" />
        </mxCell>
        <mxCell id="-u5mKM38-H2IbTdaF1BU-5" value="suministra" style="shape=rhombus;perimeter=rhombusPerimeter;whiteSpace=wrap;html=1;align=center;" vertex="1" parent="1">
          <mxGeometry x="560" y="370" width="120" height="60" as="geometry" />
        </mxCell>
        <mxCell id="-u5mKM38-H2IbTdaF1BU-22" style="edgeStyle=orthogonalEdgeStyle;rounded=0;orthogonalLoop=1;jettySize=auto;html=1;exitX=1;exitY=0.5;exitDx=0;exitDy=0;" edge="1" parent="1" source="-u5mKM38-H2IbTdaF1BU-8" target="-u5mKM38-H2IbTdaF1BU-4">
          <mxGeometry relative="1" as="geometry" />
        </mxCell>
        <mxCell id="-u5mKM38-H2IbTdaF1BU-8" value="costo" style="ellipse;whiteSpace=wrap;html=1;align=center;fillColor=#f8cecc;strokeColor=#b85450;" vertex="1" parent="1">
          <mxGeometry y="360" width="70" height="40" as="geometry" />
        </mxCell>
        <mxCell id="-u5mKM38-H2IbTdaF1BU-23" style="edgeStyle=orthogonalEdgeStyle;rounded=0;orthogonalLoop=1;jettySize=auto;html=1;exitX=1;exitY=0.5;exitDx=0;exitDy=0;entryX=0.075;entryY=0.483;entryDx=0;entryDy=0;entryPerimeter=0;" edge="1" parent="1" source="-u5mKM38-H2IbTdaF1BU-9" target="-u5mKM38-H2IbTdaF1BU-4">
          <mxGeometry relative="1" as="geometry" />
        </mxCell>
        <mxCell id="-u5mKM38-H2IbTdaF1BU-9" value="total" style="ellipse;whiteSpace=wrap;html=1;align=center;fillColor=#f8cecc;strokeColor=#b85450;" vertex="1" parent="1">
          <mxGeometry y="420" width="70" height="40" as="geometry" />
        </mxCell>
        <mxCell id="-u5mKM38-H2IbTdaF1BU-24" style="edgeStyle=orthogonalEdgeStyle;rounded=0;orthogonalLoop=1;jettySize=auto;html=1;exitX=1;exitY=0.5;exitDx=0;exitDy=0;" edge="1" parent="1" source="-u5mKM38-H2IbTdaF1BU-10">
          <mxGeometry relative="1" as="geometry">
            <mxPoint x="90" y="400" as="targetPoint" />
          </mxGeometry>
        </mxCell>
        <mxCell id="-u5mKM38-H2IbTdaF1BU-10" value="fecha" style="ellipse;whiteSpace=wrap;html=1;align=center;fillColor=#f8cecc;strokeColor=#b85450;" vertex="1" parent="1">
          <mxGeometry y="480" width="70" height="40" as="geometry" />
        </mxCell>
        <mxCell id="-u5mKM38-H2IbTdaF1BU-20" style="edgeStyle=orthogonalEdgeStyle;rounded=0;orthogonalLoop=1;jettySize=auto;html=1;exitX=0.5;exitY=1;exitDx=0;exitDy=0;entryX=0.5;entryY=0;entryDx=0;entryDy=0;" edge="1" parent="1" source="-u5mKM38-H2IbTdaF1BU-13" target="-u5mKM38-H2IbTdaF1BU-1">
          <mxGeometry relative="1" as="geometry" />
        </mxCell>
        <mxCell id="-u5mKM38-H2IbTdaF1BU-13" value="RFC" style="ellipse;whiteSpace=wrap;html=1;align=center;fontStyle=4;" vertex="1" parent="1">
          <mxGeometry x="120" y="170" width="100" height="40" as="geometry" />
        </mxCell>
        <mxCell id="-u5mKM38-H2IbTdaF1BU-25" style="edgeStyle=orthogonalEdgeStyle;rounded=0;orthogonalLoop=1;jettySize=auto;html=1;exitX=0.5;exitY=1;exitDx=0;exitDy=0;" edge="1" parent="1" source="-u5mKM38-H2IbTdaF1BU-15" target="-u5mKM38-H2IbTdaF1BU-2">
          <mxGeometry relative="1" as="geometry" />
        </mxCell>
        <mxCell id="-u5mKM38-H2IbTdaF1BU-15" value="RFC" style="ellipse;whiteSpace=wrap;html=1;align=center;fontStyle=4;" vertex="1" parent="1">
          <mxGeometry x="560" y="150" width="100" height="40" as="geometry" />
        </mxCell>
        <mxCell id="-u5mKM38-H2IbTdaF1BU-29" style="edgeStyle=orthogonalEdgeStyle;rounded=0;orthogonalLoop=1;jettySize=auto;html=1;" edge="1" parent="1">
          <mxGeometry relative="1" as="geometry">
            <mxPoint x="410" y="430" as="targetPoint" />
            <mxPoint x="410" y="430" as="sourcePoint" />
          </mxGeometry>
        </mxCell>
        <mxCell id="-u5mKM38-H2IbTdaF1BU-16" value="código_prod" style="ellipse;whiteSpace=wrap;html=1;align=center;fontStyle=4;" vertex="1" parent="1">
          <mxGeometry x="360" y="510" width="100" height="40" as="geometry" />
        </mxCell>
        <mxCell id="-u5mKM38-H2IbTdaF1BU-46" value="" style="edgeStyle=orthogonalEdgeStyle;rounded=0;orthogonalLoop=1;jettySize=auto;html=1;" edge="1" parent="1" source="-u5mKM38-H2IbTdaF1BU-17" target="-u5mKM38-H2IbTdaF1BU-18">
          <mxGeometry relative="1" as="geometry" />
        </mxCell>
        <mxCell id="-u5mKM38-H2IbTdaF1BU-47" style="edgeStyle=orthogonalEdgeStyle;rounded=0;orthogonalLoop=1;jettySize=auto;html=1;exitX=0.5;exitY=0;exitDx=0;exitDy=0;" edge="1" parent="1" source="-u5mKM38-H2IbTdaF1BU-17" target="-u5mKM38-H2IbTdaF1BU-4">
          <mxGeometry relative="1" as="geometry" />
        </mxCell>
        <mxCell id="-u5mKM38-H2IbTdaF1BU-17" value="RFC_" style="ellipse;whiteSpace=wrap;html=1;align=center;fontStyle=4;fillColor=#dae8fc;strokeColor=#6c8ebf;" vertex="1" parent="1">
          <mxGeometry x="160" y="480" width="100" height="40" as="geometry" />
        </mxCell>
        <mxCell id="-u5mKM38-H2IbTdaF1BU-18" value="código_prod" style="ellipse;whiteSpace=wrap;html=1;align=center;fontStyle=4;fillColor=#dae8fc;strokeColor=#6c8ebf;" vertex="1" parent="1">
          <mxGeometry x="160" y="550" width="100" height="40" as="geometry" />
        </mxCell>
        <mxCell id="-u5mKM38-H2IbTdaF1BU-43" value="" style="line;strokeWidth=1;rotatable=0;dashed=0;labelPosition=right;align=left;verticalAlign=middle;spacingTop=0;spacingLeft=6;points=[];portConstraint=eastwest;labelBackgroundColor=#FF6666;" vertex="1" parent="1">
          <mxGeometry x="380" y="400" width="60" height="10" as="geometry" />
        </mxCell>
        <mxCell id="-u5mKM38-H2IbTdaF1BU-44" value="" style="line;strokeWidth=1;rotatable=0;dashed=0;labelPosition=right;align=left;verticalAlign=middle;spacingTop=0;spacingLeft=6;points=[];portConstraint=eastwest;labelBackgroundColor=#FF6666;" vertex="1" parent="1">
          <mxGeometry x="380" y="400" width="60" height="10" as="geometry" />
        </mxCell>
        <mxCell id="-u5mKM38-H2IbTdaF1BU-49" value="1:N" style="text;strokeColor=none;fillColor=none;spacingLeft=4;spacingRight=4;overflow=hidden;rotatable=0;points=[[0,0.5],[1,0.5]];portConstraint=eastwest;fontSize=12;labelBackgroundColor=#FF6666;" vertex="1" parent="1">
          <mxGeometry x="700" y="365" width="40" height="30" as="geometry" />
        </mxCell>
        <mxCell id="-u5mKM38-H2IbTdaF1BU-50" value="N:M" style="text;strokeColor=none;fillColor=none;spacingLeft=4;spacingRight=4;overflow=hidden;rotatable=0;points=[[0,0.5],[1,0.5]];portConstraint=eastwest;fontSize=12;labelBackgroundColor=#FF6666;" vertex="1" parent="1">
          <mxGeometry x="100" y="360" width="40" height="30" as="geometry" />
        </mxCell>
        <mxCell id="-u5mKM38-H2IbTdaF1BU-71" style="edgeStyle=orthogonalEdgeStyle;rounded=0;orthogonalLoop=1;jettySize=auto;html=1;exitX=0.5;exitY=1;exitDx=0;exitDy=0;entryX=0.5;entryY=0;entryDx=0;entryDy=0;" edge="1" parent="1" source="-u5mKM38-H2IbTdaF1BU-51" target="-u5mKM38-H2IbTdaF1BU-3">
          <mxGeometry relative="1" as="geometry" />
        </mxCell>
        <mxCell id="-u5mKM38-H2IbTdaF1BU-51" value="Attribute" style="ellipse;whiteSpace=wrap;html=1;align=center;labelBackgroundColor=none;" vertex="1" parent="1">
          <mxGeometry x="360" y="390" width="100" height="40" as="geometry" />
        </mxCell>
        <mxCell id="-u5mKM38-H2IbTdaF1BU-68" style="edgeStyle=orthogonalEdgeStyle;rounded=0;orthogonalLoop=1;jettySize=auto;html=1;exitX=0.5;exitY=1;exitDx=0;exitDy=0;entryX=0.5;entryY=0;entryDx=0;entryDy=0;" edge="1" parent="1" source="-u5mKM38-H2IbTdaF1BU-53" target="-u5mKM38-H2IbTdaF1BU-57">
          <mxGeometry relative="1" as="geometry" />
        </mxCell>
        <mxCell id="-u5mKM38-H2IbTdaF1BU-53" value="apellidos" style="ellipse;whiteSpace=wrap;html=1;align=center;labelBackgroundColor=none;" vertex="1" parent="1">
          <mxGeometry x="120" y="60" width="100" height="30" as="geometry" />
        </mxCell>
        <mxCell id="-u5mKM38-H2IbTdaF1BU-67" style="edgeStyle=orthogonalEdgeStyle;rounded=0;orthogonalLoop=1;jettySize=auto;html=1;exitX=0.5;exitY=1;exitDx=0;exitDy=0;entryX=0.5;entryY=0;entryDx=0;entryDy=0;" edge="1" parent="1" source="-u5mKM38-H2IbTdaF1BU-55" target="-u5mKM38-H2IbTdaF1BU-53">
          <mxGeometry relative="1" as="geometry" />
        </mxCell>
        <mxCell id="-u5mKM38-H2IbTdaF1BU-55" value="dirección" style="ellipse;whiteSpace=wrap;html=1;align=center;labelBackgroundColor=none;" vertex="1" parent="1">
          <mxGeometry x="120" width="90" height="40" as="geometry" />
        </mxCell>
        <mxCell id="-u5mKM38-H2IbTdaF1BU-70" style="edgeStyle=orthogonalEdgeStyle;rounded=0;orthogonalLoop=1;jettySize=auto;html=1;exitX=0.5;exitY=1;exitDx=0;exitDy=0;entryX=0.5;entryY=0;entryDx=0;entryDy=0;" edge="1" parent="1" source="-u5mKM38-H2IbTdaF1BU-56" target="-u5mKM38-H2IbTdaF1BU-51">
          <mxGeometry relative="1" as="geometry" />
        </mxCell>
        <mxCell id="-u5mKM38-H2IbTdaF1BU-56" value="precio unitario" style="ellipse;whiteSpace=wrap;html=1;align=center;labelBackgroundColor=none;" vertex="1" parent="1">
          <mxGeometry x="360" y="280" width="100" height="40" as="geometry" />
        </mxCell>
        <mxCell id="-u5mKM38-H2IbTdaF1BU-69" style="edgeStyle=orthogonalEdgeStyle;rounded=0;orthogonalLoop=1;jettySize=auto;html=1;exitX=0.5;exitY=1;exitDx=0;exitDy=0;entryX=0.5;entryY=0;entryDx=0;entryDy=0;" edge="1" parent="1" source="-u5mKM38-H2IbTdaF1BU-57" target="-u5mKM38-H2IbTdaF1BU-13">
          <mxGeometry relative="1" as="geometry" />
        </mxCell>
        <mxCell id="-u5mKM38-H2IbTdaF1BU-57" value="nombre" style="ellipse;whiteSpace=wrap;html=1;align=center;labelBackgroundColor=none;" vertex="1" parent="1">
          <mxGeometry x="120" y="110" width="100" height="40" as="geometry" />
        </mxCell>
        <mxCell id="-u5mKM38-H2IbTdaF1BU-65" style="edgeStyle=orthogonalEdgeStyle;rounded=0;orthogonalLoop=1;jettySize=auto;html=1;exitX=0;exitY=0.5;exitDx=0;exitDy=0;entryX=1;entryY=0.5;entryDx=0;entryDy=0;" edge="1" parent="1" source="-u5mKM38-H2IbTdaF1BU-58" target="-u5mKM38-H2IbTdaF1BU-55">
          <mxGeometry relative="1" as="geometry" />
        </mxCell>
        <mxCell id="-u5mKM38-H2IbTdaF1BU-58" value="fecha de nacimiento" style="ellipse;whiteSpace=wrap;html=1;align=center;labelBackgroundColor=none;" vertex="1" parent="1">
          <mxGeometry x="250" y="10" width="100" height="40" as="geometry" />
        </mxCell>
        <mxCell id="-u5mKM38-H2IbTdaF1BU-63" style="edgeStyle=orthogonalEdgeStyle;rounded=0;orthogonalLoop=1;jettySize=auto;html=1;exitX=0.5;exitY=1;exitDx=0;exitDy=0;entryX=0.5;entryY=0;entryDx=0;entryDy=0;" edge="1" parent="1" source="-u5mKM38-H2IbTdaF1BU-59" target="-u5mKM38-H2IbTdaF1BU-15">
          <mxGeometry relative="1" as="geometry" />
        </mxCell>
        <mxCell id="-u5mKM38-H2IbTdaF1BU-59" value="nombre" style="ellipse;whiteSpace=wrap;html=1;align=center;labelBackgroundColor=none;" vertex="1" parent="1">
          <mxGeometry x="560" y="100" width="100" height="40" as="geometry" />
        </mxCell>
        <mxCell id="-u5mKM38-H2IbTdaF1BU-62" style="edgeStyle=orthogonalEdgeStyle;rounded=0;orthogonalLoop=1;jettySize=auto;html=1;exitX=0.5;exitY=1;exitDx=0;exitDy=0;entryX=0.5;entryY=0;entryDx=0;entryDy=0;" edge="1" parent="1" source="-u5mKM38-H2IbTdaF1BU-60" target="-u5mKM38-H2IbTdaF1BU-59">
          <mxGeometry relative="1" as="geometry" />
        </mxCell>
        <mxCell id="-u5mKM38-H2IbTdaF1BU-60" value="dirección" style="ellipse;whiteSpace=wrap;html=1;align=center;labelBackgroundColor=none;" vertex="1" parent="1">
          <mxGeometry x="560" y="40" width="100" height="40" as="geometry" />
        </mxCell>
        <mxCell id="-u5mKM38-H2IbTdaF1BU-72" value="FK&#xa;" style="text;strokeColor=none;fillColor=none;spacingLeft=4;spacingRight=4;overflow=hidden;rotatable=0;points=[[0,0.5],[1,0.5]];portConstraint=eastwest;fontSize=12;labelBackgroundColor=none;" vertex="1" parent="1">
          <mxGeometry x="40" y="530" width="40" height="30" as="geometry" />
        </mxCell>
      </root>
    </mxGraphModel>
  </diagram>
</mxfile>
